Patient4_TMGait_0pt5_02_left_21_EMG.mot
version=1
nRows=13
nColumns=33
inDegrees=no
endheader
time	1LAddLong	2LGlutMax	3LGlutMed	4LIliopsoas	5LSemiMemb	6LBicFemLong	7LRecFem	8LVastMed	9LVastLat	10LGasMed	11LTibAnt	12lTibPost	13LPeroneusLong	14LSol	15LExtDigLong	16LFlexDigLong	17RAddLong	18RGlutMax	19RGlutMed	20RIliopsoas	21RSemiMemb	22RBicFemLong	23RRecFem	24RVastMed	25RVastLat	26RGasMed	27RTibAnt	28RTibPost	29RPeroneusLong	30RSol	31RExtDigLong	32RFlexDigLong
26.56	-0.006866	-0.14999	0.005646	-0.016174	-0.007629	-0.000916	-0.034332	0.005035	0.17853	0.020599	0.013733	0.00824	0.073547	-0.007935	0.062103	0.019836	0.002594	0.058594	0.1738	0.023956	-0.18616	0.039825	0.14038	-0.043793	0.018463	-0.006256	0.11353	-0.034943	0.81909	-0.033112	-0.007477	-0.011444
26.561	-0.006409	-0.11978	0.002747	0.001526	-0.012817	-0.005035	-0.067596	0.007019	0.18265	0.02121	0.014954	-0.005341	0.09079	0.000305	-0.058289	0.018158	0.002594	-0.017548	0.008545	0.002289	-0.27283	0.12466	0.21622	-0.10315	-0.018921	-0.012817	-0.045166	-0.036163	0.8197	0.029449	0.000458	-0.010223
26.562	-0.000305	-0.13412	-0.027466	0.017242	-0.004425	-0.009918	-0.048828	0.003815	0.19012	0.021057	0.022888	0	0.10284	0.0177	-0.11658	-0.002747	0.012817	-0.046844	-0.34164	-0.033722	-0.28275	0.29938	0.21072	-0.13901	-0.01297	-0.000153	-0.099182	-0.003357	0.23163	0.17777	-0.003052	0.001831
26.563	0.005188	-0.12558	-0.035553	0.023651	0.006256	-0.038757	-0.052948	0.003357	0.17609	-0.012207	0.072021	0.009766	0.1149	0.043182	-0.10437	-0.006561	0.010681	-0.08316	-0.68832	-0.071716	-0.15488	0.4628	0.15823	-0.10132	0.016785	0.007629	-0.080872	0.036774	-0.083313	0.18372	0	-0.002899
26.564	0.007629	-0.11688	-0.031738	0.016022	0.006104	-0.038147	-0.031586	-0.000305	0.15579	-0.019684	0.070496	0.000763	0.12207	0.044403	-0.031891	0.003662	-0.003815	-0.092773	-0.6163	-0.11581	0.05722	0.551	0.037079	-0.041504	0.019531	-0.007935	-0.021057	-0.042572	-0.29297	0.168	-0.001831	-0.003357
26.565	0.009155	-0.11063	-0.056763	0.015411	-0.011749	-0.034485	-0.019836	0.008392	0.1561	-0.031586	0.045471	0.002594	0.11597	0.051727	0.033264	0.006866	-0.014496	0.024109	-0.23025	-0.1683	0.30167	0.31769	-0.12161	0.006866	0.005035	-0.038757	0.059967	-0.47775	-0.62882	0.026398	0.00061	-0.008698
26.566	0.003815	-0.11047	-0.05188	0.00946	-0.006409	-0.030975	-0.020599	0.005798	0.15717	-0.0177	-0.010376	0.00473	0.11276	0.024719	0.054779	-0.007629	-0.028992	-0.023499	-0.065918	-0.11612	0.11841	-0.063171	-0.041351	-0.03418	0.002594	-0.10605	0.056458	-0.2919	-0.70892	0.002747	-0.001831	-0.014343
26.567	0.002899	-0.14236	-0.049438	-0.001678	0.00946	-0.018921	-0.015106	0.010681	0.15671	0.012512	-0.046692	0.010834	0.08667	-0.018005	0.042419	-0.003357	0.002594	-0.046997	0.021057	-0.040131	0.14526	-0.44083	0.13641	-0.014954	-0.026245	-0.097198	-0.014343	0.51926	-0.54779	-0.14633	0.00061	-0.002747
26.568	0.006561	-0.11261	-0.028381	0.023041	0.009003	0.015869	-0.025177	0.006866	0.1474	0.006866	-0.024719	0.001373	0.069427	-0.026093	0.02594	0.004272	0.017395	0.023956	-0.037994	0.059814	0.018768	-0.43274	0.067291	-0.15976	-0.078583	0.081482	-0.04425	0.19028	-0.21194	-0.12695	0.001373	-0.003662
26.569	0.000305	-0.1088	0.007935	0.03891	0.022736	0.017548	-0.032196	0.002441	0.15335	-0.021362	-0.032196	0.003662	0.052795	0.016632	0.019073	-0.002747	0.033875	0.053406	0.12375	0.063324	-0.010681	-0.63614	-0.000458	-0.13412	-0.10361	0.077972	-0.077972	0.06424	0.75989	0.17929	-0.002136	-0.003357
26.57	0.006561	-0.11795	0.11414	0.014801	-0.01236	0.002136	-0.027924	0.009766	0.14481	-0.018616	-0.008392	-0.001373	0.052795	0.032501	0.015411	-0.018463	0.066681	0.06424	0.11017	-0.048065	0.067291	-0.6987	-0.12589	-0.050812	-0.010223	0.039978	-0.013733	-0.056458	0.45242	0.15656	-0.005035	-0.019226
26.571	0.005341	-0.11383	0.067902	0.013885	-0.02594	-0.028534	-0.02182	0.008087	0.13657	-0.013123	0.027313	-0.001068	0.067902	0.046387	0.02655	-0.008392	0.068207	0.039673	0.026855	-0.082855	0.13367	-0.57831	-0.12894	0.095367	0.23224	0.013733	0.006714	-0.083618	-0.38467	0.12512	-0.003662	-0.018311
26.572	0.010071	-0.096741	0.013123	0.014038	0.035858	-0.039368	-0.036774	0.005341	0.14526	-0.005951	0.030518	0.007782	0.071716	0.043793	0.025787	-0.019073	0.017853	0.12192	0.30807	-0.04303	-0.043335	-0.27557	0.12955	0.05127	0.21118	-0.072327	0.000305	0.072479	-0.5603	0.3009	-0.001221	-0.012207
